HIERARCHY
ROOT link0
{
  OFFSET  0.00  0.00  0.00
  CHANNELS 6 Xposition Yposition Zposition Zrotation Xrotation Yrotation
  JOINT link1
  {
    OFFSET   0.50   0.00   0.00
    CHANNELS 3 Zrotation Xrotation Yrotation
    JOINT link2
    {
      OFFSET   0.50   0.00   0.00
      CHANNELS 3 Zrotation Xrotation Yrotation
      End Site 
      {
        OFFSET   0.50   0.00   0.00
      }
    }
  }
}
MOTION
Frames:    267
Frame Time: 0.033333
0.01	0	0	0	0	0	0	0	0	0	0	0
0.02	0	0	0	1	1	0	1	1	0	1	1
0.03	0	0	0	2	2	0	2	2	0	2	2
0.04	0	0	0	3	3	0	3	3	0	3	3
0.05	0	0	0	4	4	0	4	4	0	4	4
0.06	0	0	0	5	5	0	5	5	0	5	5
0.07	0	0	0	6	6	0	6	6	0	6	6
0.08	0	0	0	7	7	0	7	7	0	7	7
0.09	0	0	0	8	8	0	8	8	0	8	8
0.1	0	0	0	9	9	0	9	9	0	9	9
0.11	0	0	0	10	10	0	10	10	0	10	10
0.12	0	0	0	11	11	0	11	11	0	11	11
0.13	0	0	0	12	12	0	12	12	0	12	12
0.14	0	0	0	13	13	0	13	13	0	13	13
0.15	0	0	0	14	14	0	14	14	0	14	14
0.16	0	0	0	15	15	0	15	15	0	15	15
0.17	0	0	0	16	16	0	16	16	0	16	16
0.18	0	0	0	17	17	0	17	17	0	17	17
0.19	0	0	0	18	18	0	18	18	0	18	18
0.2	0	0	0	19	19	0	19	19	0	19	19
0.21	0	0	0	20	20	0	20	20	0	20	20
0.22	0	0	0	21	21	0	21	21	0	21	21
0.23	0	0	0	22	22	0	22	22	0	22	22
0.24	0	0	0	23	23	0	23	23	0	23	23
0.25	0	0	0	24	24	0	24	24	0	24	24
0.26	0	0	0	25	25	0	25	25	0	25	25
0.27	0	0	0	26	26	0	26	26	0	26	26
0.28	0	0	0	27	27	0	27	27	0	27	27
0.29	0	0	0	28	28	0	28	28	0	28	28
0.3	0	0	0	29	29	0	29	29	0	29	29
0.31	0	0	0	30	30	0	30	30	0	30	30
0.32	0	0	0	31	31	0	31	31	0	31	31
0.33	0	0	0	32	32	0	32	32	0	32	32
0.34	0	0	0	33	33	0	33	33	0	33	33
0.35	0	0	0	34	34	0	34	34	0	34	34
0.36	0	0	0	35	35	0	35	35	0	35	35
0.37	0	0	0	36	36	0	36	36	0	36	36
0.38	0	0	0	37	37	0	37	37	0	37	37
0.39	0	0	0	38	38	0	38	38	0	38	38
0.4	0	0	0	39	39	0	39	39	0	39	39
0.41	0	0	0	40	40	0	40	40	0	40	40
0.42	0	0	0	41	41	0	41	41	0	41	41
0.43	0	0	0	42	42	0	42	42	0	42	42
0.44	0	0	0	43	43	0	43	43	0	43	43
0.45	0	0	0	44	44	0	44	44	0	44	44
0.46	0	0	0	45	45	0	45	45	0	45	45
0.47	0	0	0	46	46	0	46	46	0	46	46
0.48	0	0	0	47	47	0	47	47	0	47	47
0.49	0	0	0	48	48	0	48	48	0	48	48
0.5	0	0	0	49	49	0	49	49	0	49	49
0.51	0	0	0	50	50	0	50	50	0	50	50
0.52	0	0	0	51	51	0	51	51	0	51	51
0.53	0	0	0	52	52	0	52	52	0	52	52
0.54	0	0	0	53	53	0	53	53	0	53	53
0.55	0	0	0	54	54	0	54	54	0	54	54
0.56	0	0	0	55	55	0	55	55	0	55	55
0.57	0	0	0	56	56	0	56	56	0	56	56
0.58	0	0	0	57	57	0	57	57	0	57	57
0.59	0	0	0	58	58	0	58	58	0	58	58
0.6	0	0	0	59	59	0	59	59	0	59	59
0.61	0	0	0	60	60	0	60	60	0	60	60
0.62	0	0	0	61	61	0	61	61	0	61	61
0.63	0	0	0	62	62	0	62	62	0	62	62
0.64	0	0	0	63	63	0	63	63	0	63	63
0.65	0	0	0	64	64	0	64	64	0	64	64
0.66	0	0	0	65	65	0	65	65	0	65	65
0.67	0	0	0	66	66	0	66	66	0	66	66
0.68	0	0	0	67	67	0	67	67	0	67	67
0.69	0	0	0	68	68	0	68	68	0	68	68
0.7	0	0	0	69	69	0	69	69	0	69	69
0.71	0	0	0	70	70	0	70	70	0	70	70
0.72	0	0	0	71	71	0	71	71	0	71	71
0.73	0	0	0	72	72	0	72	72	0	72	72
0.74	0	0	0	73	73	0	73	73	0	73	73
0.75	0	0	0	74	74	0	74	74	0	74	74
0.76	0	0	0	75	75	0	75	75	0	75	75
0.77	0	0	0	76	76	0	76	76	0	76	76
0.78	0	0	0	77	77	0	77	77	0	77	77
0.79	0	0	0	78	78	0	78	78	0	78	78
0.8	0	0	0	79	79	0	79	79	0	79	79
0.81	0	0	0	80	80	0	80	80	0	80	80
0.82	0	0	0	81	81	0	81	81	0	81	81
0.83	0	0	0	82	82	0	82	82	0	82	82
0.84	0	0	0	83	83	0	83	83	0	83	83
0.85	0	0	0	84	84	0	84	84	0	84	84
0.86	0	0	0	85	85	0	85	85	0	85	85
0.87	0	0	0	86	86	0	86	86	0	86	86
0.88	0	0	0	87	87	0	87	87	0	87	87
0.89	0	0	0	88	88	0	88	88	0	88	88
0.9	0	0	0	89	89	0	89	89	0	89	89
0.91	0	0	0	90	90	0	90	90	0	90	90
0.92	0	0	0	91	91	0	91	91	0	91	91
0.93	0	0	0	92	92	0	92	92	0	92	92
0.94	0	0	0	93	93	0	93	93	0	93	93
0.95	0	0	0	94	94	0	94	94	0	94	94
0.96	0	0	0	95	95	0	95	95	0	95	95
0.97	0	0	0	96	96	0	96	96	0	96	96
0.98	0	0	0	97	97	0	97	97	0	97	97
0.99	0	0	0	98	98	0	98	98	0	98	98
1	0	0	0	99	99	0	99	99	0	99	99
1.01	0	0	0	100	100	0	100	100	0	100	100
1.02	0	0	0	101	101	0	101	101	0	101	101
1.03	0	0	0	102	102	0	102	102	0	102	102
1.04	0	0	0	103	103	0	103	103	0	103	103
1.05	0	0	0	104	104	0	104	104	0	104	104
1.06	0	0	0	105	105	0	105	105	0	105	105
1.07	0	0	0	106	106	0	106	106	0	106	106
1.08	0	0	0	107	107	0	107	107	0	107	107
1.09	0	0	0	108	108	0	108	108	0	108	108
1.1	0	0	0	109	109	0	109	109	0	109	109
1.11	0	0	0	110	110	0	110	110	0	110	110
1.12	0	0	0	111	111	0	111	111	0	111	111
1.13	0	0	0	112	112	0	112	112	0	112	112
1.14	0	0	0	113	113	0	113	113	0	113	113
1.15	0	0	0	114	114	0	114	114	0	114	114
1.16	0	0	0	115	115	0	115	115	0	115	115
1.17	0	0	0	116	116	0	116	116	0	116	116
1.18	0	0	0	117	117	0	117	117	0	117	117
1.19	0	0	0	118	118	0	118	118	0	118	118
1.2	0	0	0	119	119	0	119	119	0	119	119
1.21	0	0	0	120	120	0	120	120	0	120	120
1.22	0	0	0	121	121	0	121	121	0	121	121
1.23	0	0	0	122	122	0	122	122	0	122	122
1.24	0	0	0	123	123	0	123	123	0	123	123
1.25	0	0	0	124	124	0	124	124	0	124	124
1.26	0	0	0	125	125	0	125	125	0	125	125
1.27	0	0	0	126	126	0	126	126	0	126	126
1.28	0	0	0	127	127	0	127	127	0	127	127
1.29	0	0	0	128	128	0	128	128	0	128	128
1.3	0	0	0	129	129	0	129	129	0	129	129
1.31	0	0	0	130	130	0	130	130	0	130	130
1.32	0	0	0	131	131	0	131	131	0	131	131
1.33	0	0	0	132	132	0	132	132	0	132	132
1.34	0	0	0	133	133	0	133	133	0	133	133
1.35	0	0	0	134	134	0	134	134	0	134	134
1.36	0	0	0	135	135	0	135	135	0	135	135
1.37	0	0	0	136	136	0	136	136	0	136	136
1.38	0	0	0	137	137	0	137	137	0	137	137
1.39	0	0	0	138	138	0	138	138	0	138	138
1.4	0	0	0	139	139	0	139	139	0	139	139
1.41	0	0	0	140	140	0	140	140	0	140	140
1.42	0	0	0	141	141	0	141	141	0	141	141
1.43	0	0	0	142	142	0	142	142	0	142	142
1.44	0	0	0	143	143	0	143	143	0	143	143
1.45	0	0	0	144	144	0	144	144	0	144	144
1.46	0	0	0	145	145	0	145	145	0	145	145
1.47	0	0	0	146	146	0	146	146	0	146	146
1.48	0	0	0	147	147	0	147	147	0	147	147
1.49	0	0	0	148	148	0	148	148	0	148	148
1.5	0	0	0	149	149	0	149	149	0	149	149
1.51	0	0	0	150	150	0	150	150	0	150	150
1.52	0	0	0	151	151	0	151	151	0	151	151
1.53	0	0	0	152	152	0	152	152	0	152	152
1.54	0	0	0	153	153	0	153	153	0	153	153
1.55	0	0	0	154	154	0	154	154	0	154	154
1.56	0	0	0	155	155	0	155	155	0	155	155
1.57	0	0	0	156	156	0	156	156	0	156	156
1.58	0	0	0	157	157	0	157	157	0	157	157
1.59	0	0	0	158	158	0	158	158	0	158	158
1.6	0	0	0	159	159	0	159	159	0	159	159
1.61	0	0	0	160	160	0	160	160	0	160	160
1.62	0	0	0	161	161	0	161	161	0	161	161
1.63	0	0	0	162	162	0	162	162	0	162	162
1.64	0	0	0	163	163	0	163	163	0	163	163
1.65	0	0	0	164	164	0	164	164	0	164	164
1.66	0	0	0	165	165	0	165	165	0	165	165
1.67	0	0	0	166	166	0	166	166	0	166	166
1.68	0	0	0	167	167	0	167	167	0	167	167
1.69	0	0	0	168	168	0	168	168	0	168	168
1.7	0	0	0	169	169	0	169	169	0	169	169
1.71	0	0	0	170	170	0	170	170	0	170	170
1.72	0	0	0	171	171	0	171	171	0	171	171
1.73	0	0	0	172	172	0	172	172	0	172	172
1.74	0	0	0	173	173	0	173	173	0	173	173
1.75	0	0	0	174	174	0	174	174	0	174	174
1.76	0	0	0	175	175	0	175	175	0	175	175
1.77	0	0	0	176	176	0	176	176	0	176	176
1.78	0	0	0	177	177	0	177	177	0	177	177
1.79	0	0	0	178	178	0	178	178	0	178	178
1.8	0	0	0	179	179	0	179	179	0	179	179
1.81	0	0	0	180	180	0	180	180	0	180	180
1.82	0	0	0	181	181	0	181	181	0	181	181
1.83	0	0	0	182	182	0	182	182	0	182	182
1.84	0	0	0	183	183	0	183	183	0	183	183
1.85	0	0	0	184	184	0	184	184	0	184	184
1.86	0	0	0	185	185	0	185	185	0	185	185
1.87	0	0	0	186	186	0	186	186	0	186	186
1.88	0	0	0	187	187	0	187	187	0	187	187
1.89	0	0	0	188	188	0	188	188	0	188	188
1.9	0	0	0	189	189	0	189	189	0	189	189
1.91	0	0	0	190	190	0	190	190	0	190	190
1.92	0	0	0	191	191	0	191	191	0	191	191
1.93	0	0	0	192	192	0	192	192	0	192	192
1.94	0	0	0	193	193	0	193	193	0	193	193
1.95	0	0	0	194	194	0	194	194	0	194	194
1.96	0	0	0	195	195	0	195	195	0	195	195
1.97	0	0	0	196	196	0	196	196	0	196	196
1.98	0	0	0	197	197	0	197	197	0	197	197
1.99	0	0	0	198	198	0	198	198	0	198	198
2	0	0	0	199	199	0	199	199	0	199	199
2.01	0	0	0	200	200	0	200	200	0	200	200
2.02	0	0	0	201	201	0	201	201	0	201	201
2.03	0	0	0	202	202	0	202	202	0	202	202
2.04	0	0	0	203	203	0	203	203	0	203	203
2.05	0	0	0	204	204	0	204	204	0	204	204
2.06	0	0	0	205	205	0	205	205	0	205	205
2.07	0	0	0	206	206	0	206	206	0	206	206
2.08	0	0	0	207	207	0	207	207	0	207	207
2.09	0	0	0	208	208	0	208	208	0	208	208
2.1	0	0	0	209	209	0	209	209	0	209	209
2.11	0	0	0	210	210	0	210	210	0	210	210
2.12	0	0	0	211	211	0	211	211	0	211	211
2.13	0	0	0	212	212	0	212	212	0	212	212
2.14	0	0	0	213	213	0	213	213	0	213	213
2.15	0	0	0	214	214	0	214	214	0	214	214
2.16	0	0	0	215	215	0	215	215	0	215	215
2.17	0	0	0	216	216	0	216	216	0	216	216
2.18	0	0	0	217	217	0	217	217	0	217	217
2.19	0	0	0	218	218	0	218	218	0	218	218
2.2	0	0	0	219	219	0	219	219	0	219	219
2.21	0	0	0	220	220	0	220	220	0	220	220
2.22	0	0	0	221	221	0	221	221	0	221	221
2.23	0	0	0	222	222	0	222	222	0	222	222
2.24	0	0	0	223	223	0	223	223	0	223	223
2.25	0	0	0	224	224	0	224	224	0	224	224
2.26	0	0	0	225	225	0	225	225	0	225	225
2.27	0	0	0	226	226	0	226	226	0	226	226
2.28	0	0	0	227	227	0	227	227	0	227	227
2.29	0	0	0	228	228	0	228	228	0	228	228
2.3	0	0	0	229	229	0	229	229	0	229	229
2.31	0	0	0	230	230	0	230	230	0	230	230
2.32	0	0	0	231	231	0	231	231	0	231	231
2.33	0	0	0	232	232	0	232	232	0	232	232
2.34	0	0	0	233	233	0	233	233	0	233	233
2.35	0	0	0	234	234	0	234	234	0	234	234
2.36	0	0	0	235	235	0	235	235	0	235	235
2.37	0	0	0	236	236	0	236	236	0	236	236
2.38	0	0	0	237	237	0	237	237	0	237	237
2.39	0	0	0	238	238	0	238	238	0	238	238
2.4	0	0	0	239	239	0	239	239	0	239	239
2.41	0	0	0	240	240	0	240	240	0	240	240
2.42	0	0	0	241	241	0	241	241	0	241	241
2.43	0	0	0	242	242	0	242	242	0	242	242
2.44	0	0	0	243	243	0	243	243	0	243	243
2.45	0	0	0	244	244	0	244	244	0	244	244
2.46	0	0	0	245	245	0	245	245	0	245	245
2.47	0	0	0	246	246	0	246	246	0	246	246
2.48	0	0	0	247	247	0	247	247	0	247	247
2.49	0	0	0	248	248	0	248	248	0	248	248
2.5	0	0	0	249	249	0	249	249	0	249	249
2.51	0	0	0	250	250	0	250	250	0	250	250
2.52	0	0	0	251	251	0	251	251	0	251	251
2.53	0	0	0	252	252	0	252	252	0	252	252
2.54	0	0	0	253	253	0	253	253	0	253	253
2.55	0	0	0	254	254	0	254	254	0	254	254
2.56	0	0	0	255	255	0	255	255	0	255	255
2.57	0	0	0	256	256	0	256	256	0	256	256
2.58	0	0	0	257	257	0	257	257	0	257	257
2.59	0	0	0	258	258	0	258	258	0	258	258
2.6	0	0	0	259	259	0	259	259	0	259	259
2.61	0	0	0	260	260	0	260	260	0	260	260
2.62	0	0	0	261	261	0	261	261	0	261	261
2.63	0	0	0	262	262	0	262	262	0	262	262
2.64	0	0	0	263	263	0	263	263	0	263	263
2.65	0	0	0	264	264	0	264	264	0	264	264
2.66	0	0	0	265	265	0	265	265	0	265	265
2.67	0	0	0	266	266	0	266	266	0	266	266
